<svg xmlns="http://www.w3.org/2000/svg" width="512" height="512" viewBox="0 0 512 512">
  <defs>
    <linearGradient id="bg" x1="0%" y1="0%" x2="100%" y2="100%">
      <stop offset="0%" style="stop-color:#1a1a2e"/>
      <stop offset="100%" style="stop-color:#0f0f1a"/>
    </linearGradient>
    <linearGradient id="accent" x1="0%" y1="0%" x2="100%" y2="100%">
      <stop offset="0%" style="stop-color:#00d2d3"/>
      <stop offset="100%" style="stop-color:#54a0ff"/>
    </linearGradient>
  </defs>
  <!-- Background circle -->
  <circle cx="256" cy="256" r="240" fill="url(#bg)" stroke="#2a2a4a" stroke-width="4"/>
  <!-- Document shape -->
  <path d="M176 96 h112 l64 64 v256 a16 16 0 0 1 -16 16 H176 a16 16 0 0 1 -16 -16 V112 a16 16 0 0 1 16 -16z" fill="#16213e" stroke="#2a2a4a" stroke-width="2"/>
  <!-- Folded corner -->
  <path d="M288 96 v48 a16 16 0 0 0 16 16 h48z" fill="#1e2a4a" stroke="#2a2a4a" stroke-width="1"/>
  <!-- Shield/check icon -->
  <path d="M256 200 l60 20 v50 c0 40 -25 70 -60 85 c-35 -15 -60 -45 -60 -85 v-50 z" fill="none" stroke="url(#accent)" stroke-width="6" stroke-linejoin="round"/>
  <!-- Checkmark -->
  <polyline points="232,280 250,298 280,258" fill="none" stroke="#00d2d3" stroke-width="8" stroke-linecap="round" stroke-linejoin="round"/>
  <!-- Lines (document text) -->
  <line x1="192" y1="370" x2="300" y2="370" stroke="#2a2a4a" stroke-width="4" stroke-linecap="round"/>
  <line x1="192" y1="390" x2="260" y2="390" stroke="#2a2a4a" stroke-width="4" stroke-linecap="round"/>
</svg>
